<?xml version="1.0" standalone="no"?>
<!DOCTYPE svg PUBLIC "-//W3C//DTD SVG 20010904//EN"
 "http://www.w3.org/TR/2001/REC-SVG-20010904/DTD/svg10.dtd">
<svg version="1.0" xmlns="http://www.w3.org/2000/svg"
 width="450.000000pt" height="561.000000pt" viewBox="0 0 450.000000 561.000000"
 preserveAspectRatio="xMidYMid meet">

<g transform="translate(0.000000,561.000000) scale(0.100000,-0.100000)"
fill="#000000" stroke="none">
<path d="M780 3702 c0 -1544 2 -1724 16 -1773 54 -182 201 -328 389 -386 57
-17 118 -18 1055 -18 938 0 998 1 1055 18 182 57 315 184 382 367 l28 75 3
1235 c2 679 0 1452 -3 1718 l-7 482 -1459 0 -1459 0 0 -1718z m1941 508 c195
-37 363 -217 388 -415 13 -101 14 -1015 2 -1102 -21 -144 -85 -257 -193 -338
-83 -62 -154 -87 -265 -93 -74 -3 -105 0 -160 16 -176 54 -310 201 -342 376
-7 38 -11 255 -11 600 0 437 3 551 15 595 46 174 181 308 358 356 63 17 136
18 208 5z m599 -2180 l0 -120 -192 0 c-175 0 -196 2 -226 20 -52 32 -72 74
-72 153 l0 67 245 0 245 0 0 -120z"/>
<path d="M2515 1268 c-40 -22 -65 -52 -71 -85 -13 -71 34 -118 146 -143 74
-17 106 -35 113 -62 14 -50 -46 -94 -116 -85 -54 7 -80 33 -74 73 3 18 3 35 0
38 -6 5 -93 -51 -93 -60 0 -17 39 -59 77 -80 38 -23 52 -26 121 -23 67 3 84 8
115 32 66 50 71 152 9 196 -15 10 -61 29 -102 41 -41 12 -85 28 -97 36 -50 32
-11 84 63 84 50 0 94 -30 94 -66 0 -32 10 -30 48 9 l32 33 -22 22 c-13 11 -40
28 -60 37 -43 17 -153 20 -183 3z"/>
<path d="M270 1261 c0 -5 6 -11 12 -13 9 -3 2 -27 -22 -79 -28 -60 -35 -86
-35 -139 0 -83 23 -126 85 -157 39 -20 59 -23 173 -23 120 0 129 1 121 18 -13
26 -17 363 -4 376 20 20 9 26 -50 26 -55 0 -75 -10 -50 -25 6 -4 10 -74 10
-177 l0 -171 -65 5 c-36 3 -77 13 -91 23 -32 21 -54 72 -54 124 0 50 34 142
66 180 13 16 24 32 24 35 0 3 -27 6 -60 6 -33 0 -60 -4 -60 -9z"/>
<path d="M660 1261 c0 -6 5 -13 10 -16 6 -4 10 -77 10 -185 0 -108 -4 -181
-10 -185 -23 -14 -7 -25 40 -25 47 0 63 11 40 25 -6 4 -10 69 -10 163 l0 157
110 -110 c109 -109 110 -110 110 -157 0 -26 -4 -50 -10 -53 -23 -14 -7 -25 40
-25 47 0 63 11 40 25 -6 4 -10 77 -10 185 0 108 4 181 10 185 23 14 7 25 -40
25 -47 0 -63 -11 -40 -25 6 -3 10 -38 10 -78 l0 -72 -88 88 -87 87 -63 0 c-34
0 -62 -4 -62 -9z"/>
<path d="M1090 1264 c0 -3 7 -12 15 -20 12 -13 15 -47 15 -183 0 -138 -3 -171
-15 -181 -28 -23 -16 -30 50 -30 60 0 80 9 55 25 -6 4 -10 77 -10 185 0 108 4
181 10 185 25 16 5 25 -55 25 -36 0 -65 -3 -65 -6z"/>
<path d="M1230 1261 c0 -5 7 -14 15 -21 8 -6 42 -97 77 -201 l63 -190 44 3 43
3 65 190 c36 105 71 195 79 201 24 19 16 24 -41 24 -54 0 -65 -6 -45 -26 9 -9
-31 -144 -83 -274 -8 -22 -15 -8 -58 120 -32 95 -46 147 -39 154 20 20 8 26
-55 26 -36 0 -65 -4 -65 -9z"/>
<path d="M1640 1261 c0 -6 5 -13 10 -16 6 -4 10 -77 10 -185 0 -108 -4 -181
-10 -185 -32 -19 5 -25 165 -25 l175 0 0 40 c0 41 -21 57 -34 25 -4 -12 -26
-15 -111 -15 l-106 0 3 83 3 82 63 3 c45 2 71 -2 88 -12 13 -9 26 -16 29 -16
3 0 5 23 5 50 0 51 -8 61 -30 35 -9 -11 -33 -15 -86 -15 l-74 0 0 55 0 55 100
0 c80 0 102 -3 106 -15 11 -28 24 -15 24 25 l0 40 -165 0 c-96 0 -165 -4 -165
-9z"/>
<path d="M2030 1261 c0 -6 5 -13 10 -16 6 -4 10 -77 10 -185 0 -108 -4 -181
-10 -185 -25 -16 -5 -25 55 -25 66 0 78 7 50 30 -12 10 -15 30 -13 84 l3 71
30 0 c27 0 35 -9 83 -92 l54 -93 49 0 c54 0 58 4 30 34 -10 12 -37 52 -59 91
l-41 69 28 12 c39 16 61 51 61 96 0 96 -39 118 -214 118 -72 0 -126 -4 -126
-9z m243 -60 c24 -24 27 -76 5 -98 -10 -9 -42 -17 -82 -20 l-66 -6 0 70 c0 38
3 73 8 77 14 15 114 -2 135 -23z"/>
<path d="M2840 1261 c0 -6 5 -13 10 -16 6 -4 10 -77 10 -185 0 -108 -4 -181
-10 -185 -25 -16 -5 -25 55 -25 66 0 78 7 50 30 -12 10 -15 43 -15 181 0 136
3 170 15 183 8 8 15 17 15 20 0 3 -29 6 -65 6 -36 0 -65 -4 -65 -9z"/>
<path d="M3010 1264 c0 -3 7 -12 15 -20 12 -13 15 -47 15 -183 0 -138 -3 -171
-15 -181 -8 -7 -15 -16 -15 -21 0 -5 60 -9 133 -9 107 0 140 4 172 19 46 21
79 54 94 94 17 44 13 137 -8 183 -22 48 -82 101 -131 114 -37 10 -260 14 -260
4z m236 -63 c64 -29 89 -72 89 -153 0 -57 -4 -70 -25 -93 -34 -37 -79 -55
-140 -55 l-50 0 0 160 0 160 43 0 c23 0 60 -9 83 -19z"/>
<path d="M3577 1233 c-8 -21 -41 -105 -72 -188 -32 -82 -64 -157 -71 -166 -22
-25 -17 -29 41 -29 59 0 61 1 44 28 -8 13 -6 29 9 67 l20 50 74 3 74 3 17 -49
c11 -30 15 -60 11 -76 -6 -26 -6 -26 55 -26 60 0 76 11 51 36 -5 5 -38 86 -73
179 -36 94 -68 178 -72 188 -5 12 -19 17 -50 17 -40 0 -44 -2 -58 -37z m69
-95 c9 -29 19 -59 22 -65 3 -9 -10 -13 -48 -13 -38 0 -51 3 -47 13 2 6 13 36
23 65 10 28 22 52 26 52 3 0 14 -24 24 -52z"/>
<path d="M3860 1264 c0 -3 7 -12 15 -20 12 -13 15 -47 15 -183 0 -138 -3 -171
-15 -181 -8 -7 -15 -16 -15 -21 0 -16 257 -11 297 6 76 32 113 92 113 181 0
101 -60 186 -149 213 -39 11 -261 16 -261 5z m240 -67 c61 -32 93 -93 87 -165
-6 -85 -66 -132 -167 -132 l-50 0 0 160 0 160 43 0 c26 0 61 -9 87 -23z"/>
<path d="M3775 710 c-28 -28 -43 -50 -34 -50 23 0 119 69 119 85 0 29 -37 14
-85 -35z"/>
<path d="M1846 605 c-91 -32 -142 -120 -133 -231 9 -122 89 -194 215 -194 36
0 82 5 104 12 29 9 41 9 50 0 7 -7 31 -12 55 -12 l43 0 0 40 c0 41 -7 49 -27
29 -7 -7 -18 -9 -26 -6 -13 5 -11 14 9 53 34 68 33 145 -4 215 -22 43 -38 59
-81 81 -61 32 -139 37 -205 13z m161 -55 c57 -34 83 -120 62 -203 -6 -26 -13
-47 -15 -47 -1 0 -19 10 -39 21 -27 17 -46 20 -81 16 -53 -6 -58 -9 -50 -34 5
-15 14 -18 40 -15 21 2 44 -3 61 -14 26 -17 26 -18 9 -32 -13 -9 -35 -12 -67
-9 -95 8 -152 103 -128 211 11 51 52 105 91 119 33 12 87 6 117 -13z"/>
<path d="M4026 605 c-84 -30 -136 -110 -136 -210 0 -139 81 -215 227 -215 91
1 147 29 187 94 35 55 46 142 26 201 -16 49 -66 104 -115 126 -48 22 -134 24
-189 4z m170 -60 c81 -53 75 -244 -10 -296 -116 -71 -242 51 -206 199 11 48
53 101 90 116 26 10 98 -1 126 -19z"/>
<path d="M150 602 c0 -5 7 -15 15 -22 12 -10 15 -43 15 -181 0 -136 -3 -170
-15 -183 -8 -8 -15 -17 -15 -20 0 -10 253 -6 292 4 46 13 105 77 114 125 20
109 -20 207 -106 255 -40 22 -59 25 -172 28 -79 3 -128 0 -128 -6z m211 -53
c98 -33 148 -150 101 -238 -25 -47 -74 -71 -144 -71 l-58 0 0 160 0 160 34 0
c18 0 48 -5 67 -11z"/>
<path d="M610 601 c0 -6 5 -13 10 -16 13 -8 13 -362 0 -370 -32 -19 5 -25 165
-25 l175 0 0 40 c0 43 -14 52 -36 23 -10 -15 -29 -18 -111 -18 l-98 0 -3 83
-3 82 80 0 c44 0 83 -4 86 -10 14 -23 25 -7 25 40 0 51 -8 61 -30 35 -9 -11
-33 -15 -86 -15 l-74 0 0 55 0 55 94 0 c71 0 97 -4 106 -15 21 -25 30 -17 30
25 l0 40 -165 0 c-96 0 -165 -4 -165 -9z"/>
<path d="M1000 601 c0 -6 5 -13 10 -16 6 -4 10 -77 10 -185 0 -108 -4 -181
-10 -185 -31 -19 4 -25 150 -25 l160 0 0 45 c0 52 -9 55 -45 20 -23 -24 -31
-26 -97 -23 l-73 3 -3 166 c-2 139 0 168 13 179 28 23 16 30 -50 30 -36 0 -65
-4 -65 -9z"/>
<path d="M2270 601 c0 -6 4 -12 9 -15 5 -3 -7 -38 -27 -78 -31 -61 -36 -82
-36 -138 0 -76 19 -118 66 -152 30 -21 45 -23 181 -26 81 -2 147 -1 147 3 0 4
-7 13 -15 21 -12 13 -15 47 -15 183 0 138 3 171 15 181 28 23 16 30 -50 30
-60 0 -80 -9 -55 -25 6 -4 10 -73 10 -176 l0 -169 -50 0 c-94 0 -143 37 -156
119 -9 57 26 168 66 206 16 16 30 32 30 37 0 4 -27 8 -60 8 -33 0 -60 -4 -60
-9z"/>
<path d="M2650 601 c0 -6 5 -13 10 -16 6 -4 10 -77 10 -185 0 -108 -4 -181
-10 -185 -25 -16 -5 -25 55 -25 36 0 65 3 65 6 0 3 -7 12 -15 20 -12 13 -15
47 -15 183 0 138 3 171 15 181 28 23 16 30 -50 30 -36 0 -65 -4 -65 -9z"/>
<path d="M2830 601 c0 -6 5 -13 10 -16 6 -4 10 -77 10 -186 0 -150 -2 -181
-15 -185 -32 -13 -13 -24 40 -24 54 0 65 6 45 26 -7 7 -9 67 -8 159 l3 148
108 -102 107 -103 0 -49 c0 -35 -4 -51 -15 -55 -32 -13 -13 -24 40 -24 50 0
73 12 43 22 -10 4 -14 49 -16 172 -3 139 -1 171 12 191 9 14 16 27 16 30 0 3
-22 5 -50 5 -47 0 -63 -11 -40 -25 6 -3 10 -41 10 -83 l0 -77 -93 93 -92 92
-58 0 c-31 0 -57 -4 -57 -9z"/>
<path d="M3260 601 c0 -6 5 -13 10 -16 6 -4 10 -77 10 -185 0 -108 -4 -181
-10 -185 -30 -19 2 -25 123 -25 107 0 140 4 173 19 74 34 111 105 101 197 -10
95 -70 169 -158 194 -44 13 -249 13 -249 1z m226 -60 c92 -42 129 -157 77
-239 -26 -41 -72 -62 -140 -62 l-63 0 0 153 c0 85 3 157 7 160 13 13 78 6 119
-12z"/>
<path d="M3710 601 c0 -5 7 -14 15 -21 12 -10 15 -43 15 -181 0 -136 -3 -170
-15 -183 -8 -8 -15 -17 -15 -20 0 -3 29 -6 65 -6 60 0 80 9 55 25 -6 4 -10 77
-10 185 0 108 4 181 10 185 25 16 5 25 -55 25 -36 0 -65 -4 -65 -9z"/>
</g>
</svg>
